<?xml version="1.0" encoding="utf-8"?>
<!-- Generator: Adobe Illustrator 21.0.0, SVG Export Plug-In . SVG Version: 6.00 Build 0)  -->
<svg version="1.1" id="Livello_1" xmlns="http://www.w3.org/2000/svg" xmlns:xlink="http://www.w3.org/1999/xlink" x="0px" y="0px"
	 viewBox="0 0 300 300" style="enable-background:new 0 0 300 300;" xml:space="preserve">
<title>Senza titolo-1</title>
<g>
	<g>
		<path d="M253.3,143.7l-8.5-3.3c-12.3-4.7-23.3-12.6-31.7-22.8c-8.7-10.5-22.1-15.9-35.9-14.2c-9.2,1.2-17.7,5.6-24.1,12.3v0
			c-1.7,1.8-4.6,1.8-6.4,0l-0.3-0.3c-7.5-7.9-18.1-12.4-28.9-12.4c-12,0-23.2,5.3-30.8,14.5c-8.4,10.2-19.3,18-31.7,22.8l-8.5,3.3
			c-3.6,1.4-3.4,6.7,0.3,7.8c0.1,0,0.2,0,0.3,0.1c0,0,0.1,0,0.1,0c0.1,0,0.2,0,0.3,0c0,0,0.1,0,0.1,0c0.1,0,0.2,0,0.2,0
			c0.1,0,0.1,0,0.2,0c0,0,0,0,0,0c6.4,0,13.5,5.9,22.5,13.4c4.1,3.4,8.6,7.2,13.7,10.9c1.5,1.1,3.5,1.1,4.9,0.1
			c2.4-1.8,2.2-5.1,0-6.7c-4.9-3.6-9.2-7.1-13.3-10.6c-4.8-4-9.1-7.6-13.3-10.2c12.4-2.3,31.1-4.1,45.1,1.5
			c19.5,7.8,34.4,8.7,40,8.7c0,0,0.1,0,0.1,0c5.6,0,20.5-0.9,40-8.7c15.3-6.1,36.2-3.4,48.4-0.9c-3.9,2.6-7.9,6-12.3,9.6
			c-14,11.6-31.4,26.1-59.9,29.8c-1.8,0.2-3.3,1.6-3.6,3.5c-0.4,2.7,1.7,4.8,4.1,4.8c0.2,0,0.4,0,0.5,0c30.8-4,50-20,64.1-31.7
			c9-7.5,16.1-13.4,22.5-13.4c2,0,3.7-1.4,4.1-3.4C256.2,146.4,255.2,144.5,253.3,143.7z M184.9,142.3c-16.1,6.4-28.8,7.8-34.9,8
			c0,0-0.1,0-0.1,0h-4.1c0,0,0,0-0.1,0c-6.1-0.2-18.8-1.6-34.9-8c-10.6-4.2-23.2-4.8-34.3-4c6.2-4.3,11.8-9.5,16.6-15.4
			c7-8.5,17.8-12.7,28.9-11.2c7.2,1,13.7,4.5,18.7,9.7l6.1,6.4c0.5,0.5,1,0.9,1.6,1.1c1.6,0.6,3.4,0.2,4.5-1l6.5-6.8
			c6-6.2,14.3-9.8,22.9-9.8c9.5,0,18.4,4.2,24.4,11.5c5,6,10.8,11.4,17.2,15.8C211.8,137.4,197,137.5,184.9,142.3z"/>
	</g>
</g>
</svg>
