<?xml version="1.0" encoding="utf-8"?>
<!-- Generator: Adobe Illustrator 21.0.0, SVG Export Plug-In . SVG Version: 6.00 Build 0)  -->
<svg version="1.1" id="Livello_1" xmlns="http://www.w3.org/2000/svg" xmlns:xlink="http://www.w3.org/1999/xlink" x="0px" y="0px"
	 viewBox="0 0 300 300" style="enable-background:new 0 0 300 300;" xml:space="preserve">
<title>Senza titolo-1</title>
<g>
	<g>
		<path d="M241.8,163.2c0-9.6-7.4-17.6-16.8-18.5v-6.8c0-25.2-12.5-47.5-31.6-61.1c-3.3-21.3-21.6-37.2-43.4-37.2
			c-21.8,0-40.1,15.8-43.4,37.2c-19.1,13.6-31.6,35.9-31.6,61.1v6.8c-9.4,0.9-16.8,8.9-16.9,18.5l0,10.9c0,5,1.9,9.7,5.4,13.2
			c3.5,3.5,8.2,5.5,13.2,5.5h2.1c9.5,32.7,35.7,58.8,70.1,67.4c0.3,0.1,0.7,0.1,1,0.1c0.3,0,0.7,0,1-0.1l0.1,0
			c7.9-2,15.5-4.9,22.6-8.7c2.1-1.1,2.9-3.7,1.8-5.8c-1.1-2.1-3.7-2.9-5.8-1.8c-6.2,3.3-12.8,5.9-19.6,7.7
			c-39.1-10.2-66.3-45.4-66.3-86v-5.5l1.9-0.4c24.5-5.6,48.2-15.6,69.3-29.3c14.5,18.9,37.1,30.1,61.1,30.1h0.5v5.1
			c0,14.6-3.6,29.1-10.5,42c-1.1,2.1-0.3,4.7,1.8,5.8c0.6,0.3,1.3,0.5,2,0.5c1.5,0,3-0.8,3.8-2.3c3.2-6,5.8-12.3,7.7-18.9h2
			c5,0,9.7-1.9,13.2-5.5c3.5-3.5,5.5-8.2,5.4-13.2L241.8,163.2z M76.8,184.2L76.8,184.2c-2.7,0-5.2-1-7.1-2.9
			c-1.9-1.9-2.9-4.4-2.9-7.1l0-10.9c0-4.9,3.6-9,8.2-9.8v12.2C75.1,171.9,75.7,178.2,76.8,184.2L76.8,184.2L76.8,184.2z M150.1,48.3
			c14.8,0,27.6,9.1,32.8,22.2c-9.9-4.9-21.1-7.6-32.8-7.6s-22.9,2.7-32.8,7.6C122.4,57.4,135.3,48.3,150.1,48.3z M216.4,150v1.9
			h-0.5c-21.2,0-41-9.8-53.9-26.3c3-2.1,5.9-4.3,8.8-6.6c1.9-1.5,2.2-4.2,0.7-6.1c-1.5-1.9-4.2-2.2-6.1-0.7
			c-23.8,18.8-52.1,32.4-81.7,39.1V150v-12.1c0-36.6,29.8-66.4,66.4-66.4s66.4,29.8,66.4,66.4V150L216.4,150z M230.3,181.3
			c-1.9,1.9-4.4,2.9-7,2.9c1.2-6.1,1.8-12.4,1.8-18.6v-12.2c4.6,0.9,8.1,5,8.1,9.8l0,10.9C233.2,176.8,232.2,179.4,230.3,181.3z"/>
	</g>
</g>
</svg>
