<?xml version="1.0" encoding="utf-8"?>
<!-- Generator: Adobe Illustrator 21.0.0, SVG Export Plug-In . SVG Version: 6.00 Build 0)  -->
<svg version="1.1" id="Livello_1" xmlns="http://www.w3.org/2000/svg" xmlns:xlink="http://www.w3.org/1999/xlink" x="0px" y="0px"
	 viewBox="0 0 300 300" style="enable-background:new 0 0 300 300;" xml:space="preserve">
<title>Senza titolo-1</title>
<g>
	<g>
		<path d="M243.3,145.2l-29.5-43.3c-6.2-9.1-15.3-15.8-25.8-19.1c-10.5-3.3-21.8-2.9-32.1,1L129,94c-1.9,0.7-2.8,2.8-2.1,4.7
			c0.7,1.9,2.8,2.8,4.7,2.1l26.9-10.3c18.1-6.9,38.3-0.6,49.2,15.4l18.1,26.6l-32.5-22.9c-6.8-4.8-15.6-6.1-23.5-3.4l-97.8,33.3
			c-3.4,1.2-7.1-0.7-8.3-4c-1.5-4.3,0.6-9,4.9-10.7l33.6-12.9c1.9-0.7,2.8-2.8,2.1-4.7c-0.7-1.9-2.8-2.8-4.7-2.1L66,118.1
			c-8,3.1-12.1,11.8-9.2,20c2.5,7.2,10.4,11,17.6,8.6l97.8-33.3c5.7-1.9,12-1,16.9,2.4l49,34.5c0.6,0.4,1.4,0.7,2.1,0.7
			c0.9,0,1.9-0.4,2.6-1.1C244.1,148.6,244.3,146.7,243.3,145.2z"/>
	</g>
</g>
<g>
	<g>
		<path d="M119.2,100.1c-0.7-0.7-1.6-1.1-2.6-1.1c-1,0-1.9,0.4-2.6,1.1c-0.7,0.7-1.1,1.6-1.1,2.6c0,1,0.4,1.9,1.1,2.6
			c0.7,0.7,1.6,1.1,2.6,1.1c1,0,1.9-0.4,2.6-1.1c0.7-0.7,1.1-1.6,1.1-2.6C120.2,101.8,119.8,100.8,119.2,100.1z"/>
	</g>
</g>
<path d="M141.9,219.5c2,0,3.7-1.6,3.7-3.7V194c1.5-0.1,3-0.1,4.5-0.3c0.6,6.6,2.7,13.1,6.1,18.9l0.5,0.8c0.7,1.2,1.9,1.8,3.2,1.8
	c0.6,0,1.3-0.2,1.9-0.5c1.7-1,2.3-3.3,1.3-5l-0.5-0.8c-2.9-4.9-4.6-10.4-5.1-16c2.1-0.3,4.3-0.7,6.4-1.2c0.6,7,3.5,13.5,8.2,18.7
	c0.7,0.8,1.7,1.2,2.7,1.2c0.9,0,1.8-0.3,2.5-1c1.5-1.4,1.6-3.7,0.2-5.2c-4-4.3-6.2-9.9-6.4-15.7c1.6-0.5,3.2-1,4.7-1.6
	c1.3,7.9,6.2,14.7,13.4,18.5l0.2,0.1c0.5,0.3,1.1,0.4,1.7,0.4c1.3,0,2.6-0.7,3.3-2c0.9-1.8,0.2-4-1.6-5l-0.2-0.1
	c-5.7-2.9-9.3-8.6-9.7-14.9c1.4-0.7,2.9-1.4,4.3-2.1c2.7,7,8.2,12.7,15.3,15.5l1.1,0.5c0.4,0.2,0.9,0.3,1.4,0.3
	c1.5,0,2.8-0.9,3.4-2.3c0.7-1.9-0.2-4-2.1-4.8l-1.1-0.5c-5.6-2.2-9.8-6.8-11.6-12.4c1.3-0.8,2.6-1.6,3.8-2.5
	c3.6,5,8.7,8.6,14.6,10.5l0.1,0c0.4,0.1,0.7,0.2,1.1,0.2c1.6,0,3-1,3.5-2.6c0.6-1.9-0.5-4-2.4-4.6l-0.1,0c-4.4-1.4-8.2-4.1-10.9-7.8
	c2.8-2.2,5.4-4.6,7.9-7.1c1.4-1.4,1.4-3.8,0-5.2c-1.4-1.4-3.8-1.4-5.2,0c-14.4,14.4-32.8,23.4-52.7,25.8c-0.1,0-0.3,0-0.4,0
	c-3.6,0.4-7.3,0.7-11,0.7c0,0,0,0,0,0c0,0,0,0,0,0c-3.7,0-7.4-0.2-11-0.7c-0.1,0-0.3,0-0.4,0c-19.9-2.5-38.3-11.4-52.7-25.8
	c-1.4-1.4-3.8-1.4-5.2,0c-1.4,1.4-1.4,3.8,0,5.2c2.5,2.5,5.2,4.9,7.9,7.1c-2.7,3.7-6.5,6.5-10.9,7.8l-0.1,0c-1.9,0.6-3,2.7-2.4,4.6
	c0.5,1.6,1.9,2.6,3.5,2.6c0.4,0,0.7-0.1,1.1-0.2l0.1,0c5.9-1.8,11-5.5,14.6-10.5c1.3,0.9,2.5,1.7,3.8,2.5c-1.8,5.6-6,10.2-11.6,12.4
	l-1.1,0.5c-1.9,0.7-2.8,2.9-2.1,4.8c0.6,1.4,2,2.3,3.4,2.3c0.5,0,0.9-0.1,1.4-0.3l1.1-0.5c7.1-2.8,12.6-8.5,15.3-15.5
	c1.4,0.7,2.8,1.4,4.3,2.1c-0.4,6.3-4.1,11.9-9.7,14.9l-0.2,0.1c-1.8,0.9-2.5,3.2-1.6,5c0.7,1.3,1.9,2,3.3,2c0.6,0,1.2-0.1,1.7-0.4
	l0.2-0.1c7.2-3.8,12.1-10.6,13.4-18.5c1.6,0.6,3.1,1.1,4.7,1.6c-0.2,5.8-2.5,11.4-6.4,15.7c-1.4,1.5-1.3,3.8,0.2,5.2
	c0.7,0.6,1.6,1,2.5,1c1,0,2-0.4,2.7-1.2c4.8-5.2,7.6-11.7,8.2-18.7c2.1,0.5,4.2,0.9,6.4,1.2c-0.5,5.6-2.2,11.1-5.1,16l-0.5,0.8
	c-1,1.7-0.4,4,1.3,5c0.6,0.3,1.2,0.5,1.9,0.5c1.3,0,2.5-0.6,3.2-1.8l0.5-0.8c3.4-5.8,5.5-12.2,6.1-18.9c1.5,0.1,3,0.2,4.5,0.3v21.8
	C138.3,217.8,139.9,219.5,141.9,219.5"/>
</svg>
